<svg xmlns="http://www.w3.org/2000/svg" id="4IpTqeGn1R" viewBox="0 0 369.6666666666667 78.56055482884976">
    <defs id="SvgjsDefs1047"></defs>
    <g id="SvgjsG1048" featurekey="PG4fjM-0"
        transform="matrix(0.14801526205025275,0,0,0.14801526205025275,-2.356963805272552,-4.455258032592411)"
        fill="#111111">
        <metadata xmlns="http://www.w3.org/2000/svg">Created by potrace 1.14, written by Peter
            Selinger 2001-2017</metadata>
        <g xmlns="http://www.w3.org/2000/svg"
            transform="translate(0.000000,600.000000) scale(0.100000,-0.100000)" fill="#111111"
            stroke="none">
            <path
                d="M3823 5689 c-157 -20 -367 -116 -546 -249 -133 -99 -333 -292 -440 -425 -141 -175 -270 -385 -348 -564 l-36 -84 34 -96 c72 -201 117 -414 132 -623 4 -69 11 -131 15 -137 5 -7 41 -11 95 -11 101 0 206 24 319 72 l76 33 2 70 c6 192 135 340 391 450 74 32 185 65 265 79 42 8 81 52 183 211 400 620 402 1210 4 1275 -35 5 -68 9 -74 9 -5 -1 -38 -5 -72 -10z"></path>
            <path
                d="M1325 5338 c-118 -44 -207 -165 -257 -349 -21 -76 -23 -106 -23 -299 0 -182 4 -232 23 -326 65 -325 166 -591 321 -852 105 -176 168 -255 211 -263 279 -56 495 -124 675 -214 l127 -62 39 59 c61 96 96 208 114 364 l7 62 -47 23 c-57 29 -125 100 -159 168 -46 89 -59 169 -52 321 5 134 13 177 56 322 l22 76 -45 101 c-100 222 -235 431 -382 588 -105 113 -192 180 -313 241 -90 45 -98 46 -190 49 -54 1 -110 -2 -127 -9z"></path>
            <path
                d="M3953 4166 l-92 -11 -64 -75 c-144 -168 -335 -338 -499 -444 -56 -36 -88 -64 -88 -75 0 -25 66 -130 122 -195 26 -30 84 -82 128 -115 l81 -61 37 25 c58 38 121 57 197 57 179 2 351 -86 543 -278 l102 -103 111 -12 c144 -15 485 -6 602 15 143 27 256 63 367 118 132 64 234 160 269 252 105 282 -205 604 -758 786 -334 110 -741 155 -1058 116z"></path>
            <path
                d="M995 3210 c-409 -35 -713 -176 -806 -374 -145 -307 253 -682 907 -852 254 -66 564 -95 809 -76 85 7 161 15 169 18 8 3 58 54 110 114 145 165 330 323 496 426 33 20 60 42 60 49 0 6 -14 40 -31 74 -36 72 -164 208 -247 263 l-53 36 -71 -37 c-69 -35 -74 -36 -182 -36 -105 0 -115 2 -192 36 -119 52 -217 122 -332 237 l-104 103 -71 8 c-116 15 -354 20 -462 11z"></path>
            <path
                d="M3519 3068 c-63 -85 -110 -229 -124 -376 l-7 -67 46 -24 c57 -30 126 -103 160 -169 75 -149 75 -369 -1 -625 l-26 -87 29 -72 c16 -39 59 -128 96 -196 192 -351 431 -600 670 -694 78 -32 225 -32 289 0 103 51 187 173 230 337 30 113 37 357 15 520 -39 298 -147 617 -302 897 -55 98 -105 175 -198 301 -9 11 -41 22 -92 32 -238 42 -449 111 -644 210 l-110 55 -31 -42z"></path>
            <path
                d="M3135 2580 c-68 -10 -156 -36 -241 -72 l-72 -30 -4 -86 c-3 -68 -10 -98 -30 -138 -94 -181 -310 -314 -609 -374 -55 -11 -57 -13 -111 -88 -428 -600 -513 -1211 -191 -1369 46 -22 74 -28 147 -31 265 -12 586 157 901 472 176 176 305 343 425 551 58 100 140 276 140 301 0 9 -14 55 -31 102 -71 200 -118 433 -134 663 l-7 97 -45 6 c-52 7 -68 6 -138 -4z"></path>
        </g>
    </g>
    <g id="SvgjsG1049" featurekey="jxYttZ-0"
        transform="matrix(2.981514782365054,0,0,2.981514782365054,98.82587759865248,2.092426088174731)"
        fill="#111111">
        <path
            d="M11.22 5 l2.22 0 l0 9.12 c0 2.42 -0.96 6.08 -6 6.08 s-6.04 -3.66 -6.04 -6.08 l0 -9.12 l2.22 0 l0 9.12 c0 0.9 0.2 4.24 3.82 4.24 s3.78 -3.34 3.78 -4.24 l0 -9.12 z M24.98 14.3 l0 5.7 l-2.06 0 l0 -5.5 c0 -2 -0.62 -2.88 -2.32 -2.88 c-1.92 0 -2.7 1.34 -2.7 3.08 l0 5.3 l-2.06 0 l0 -9.88 l2.06 0 l0 1.6 c0.28 -0.88 1.52 -1.68 2.7 -1.76 c2.68 -0.2 4.38 1.1 4.38 4.34 z M30.080000000000002 10.12 l0 9.88 l-2.06 0 l0 -9.88 l2.06 0 z M30.180000000000003 6.5 c0 0.64 -0.5 1.14 -1.14 1.14 c-0.62 0 -1.12 -0.5 -1.12 -1.14 c0 -0.62 0.5 -1.12 1.12 -1.12 c0.64 0 1.14 0.5 1.14 1.12 z M46.42 12.5 c0 4.14 -3.22 7.48 -7.2 7.5 l-5.84 0 l0 -15 l5.84 0 c3.98 0.02 7.2 3.38 7.2 7.5 z M39.18 18.16 c1.32 0 2.58 -0.56 3.52 -1.62 c0.96 -1.08 1.5 -2.5 1.5 -4.04 c0 -1.52 -0.54 -2.96 -1.5 -4.02 c-0.94 -1.06 -2.2 -1.64 -3.52 -1.64 l-3.58 0 l0 11.32 l3.58 0 z M53.040000000000006 9.92 c2.84 0 3.98 1.72 3.98 3.18 l0 6.9 l-2.06 0 l0 -1.08 c-0.72 0.98 -2 1.26 -2.8 1.26 c-2.26 0 -3.74 -1.32 -3.74 -3.08 c0 -2.46 1.84 -3.34 3.74 -3.34 l2.8 0 l0 -0.66 c0 -0.62 -0.24 -1.48 -1.92 -1.48 c-0.94 0 -1.8 0.5 -2.36 1.28 l-1.42 -1.28 c0.94 -1.04 2.28 -1.7 3.78 -1.7 z M54.96000000000001 16.92 l0 -1.48 l-2.52 0 c-1.22 0 -2.08 0.62 -1.94 1.74 c0.12 0.94 0.88 1.32 1.94 1.32 c1.9 0 2.52 -0.9 2.52 -1.58 z M63.300000000000004 18.36 c0.64 0.26 1.14 0.08 1.44 -0.06 l0 1.6 c-0.26 0.16 -0.64 0.3 -1.18 0.3 c-1.18 0 -2.22 -0.38 -2.86 -1.42 c-0.6 -1 -0.6 -1.54 -0.6 -3.1 l0 -3.88 l-1.2 0 l0 -1.68 l1.2 0 l0 -3.12 l2.06 0 l0 3.12 l2.58 0 l0 1.68 l-2.58 0 l0 3.88 c0 1.64 0.16 2.24 1.14 2.68 z M76.46 15.08 l0 0.74 l-7.78 0 c0 1.82 1.74 2.7 3.02 2.7 c0.94 0 1.98 -0.5 2.54 -1.3 l1.42 1.28 c-0.66 0.9 -1.74 1.7 -3.96 1.7 c-3.2 0 -5.16 -2.18 -5.16 -5.12 s1.9 -5.14 4.96 -5.14 s4.46 1.7 4.88 4.18 c0.06 0.32 0.08 0.64 0.08 0.96 z M68.72 14.120000000000001 l5.58 0 c0 -1.6 -1.28 -2.48 -2.8 -2.48 s-2.78 1.02 -2.78 2.48 z M90.83999999999999 5 l-5.22 7.52 l5.2 7.48 l-2.58 0 l-3.88 -5.6 l-3.9 5.6 l-2.6 0 l5.22 -7.48 l-5.22 -7.52 l2.6 0 l3.88 5.62 l3.92 -5.62 l2.58 0 z"></path>
    </g>
</svg>