<svg xmlns="http://www.w3.org/2000/svg" id="KwIW7cB9AO" viewBox="0 0 390 83" height="83" width="390"
    style="width: 390px;height: 83px;position: absolute;top: 50%;left: 50%;transform: translate(-50%, -50%) scale(0.581667);z-index: 0;cursor: pointer;overflow: visible;">
    <defs id="SvgjsDefs1758"></defs>
    <g id="SvgjsG1759" featurekey="rootContainer" transform="matrix(1,0,0,1,0,0)" fill="#086972">
        <rect xmlns="http://www.w3.org/2000/svg" width="390" height="83" rx="10" ry="10"></rect>
    </g>
    <g id="SvgjsG1760" featurekey="nameFeature-0"
        transform="matrix(1.4656617164630585,0,0,1.4656617164630585,14.66499084887945,3.7018432784263986)"
        fill="#ffffff">
        <path
            d="M34.88 11.120000000000001 l0 15.68 c0 10 -5.56 13.96 -15.6 13.96 c-10.08 0 -15.64 -3.64 -15.64 -12.84 l0 -16.8 l8.4 0 l0 16.2 c0 5.2 2.6 7.52 7.24 7.52 c5.52 0 7.2 -3.48 7.2 -8.56 l0 -15.16 l8.4 0 z M41.760000000000005 40 l0 -15.96 c0 -1.28 -0.04 -2.76 -0.16 -4.12 l7.44 0 c0.08 1.2 0.16 2.4 0.16 3.6 l0.08 0 c2 -2.68 5 -4.36 8.52 -4.36 c7.32 0 10.08 4.16 10.08 9.4 l0 11.44 l-7.68 0 l0 -10.28 c0 -3.2 -1.4 -5.44 -4.88 -5.44 c-3.16 0 -5.88 2.44 -5.88 6.88 l0 8.84 l-7.68 0 z M74.68 40 l0 -20.08 l7.68 0 l0 20.08 l-7.68 0 z M82.72 11.120000000000001 l0 5.6 l-8.4 0 l0 -5.6 l8.4 0 z M89.92 40 l0 -28.88 l16.04 0 c3.8 0 7.48 0.48 10.4 2.4 c3.6 2.36 5.96 6.52 5.96 11.76 c0 5.08 -1.88 8.92 -4.6 11.24 c-2.48 2.12 -6.48 3.48 -12.36 3.48 l-15.44 0 z M98.32000000000001 16.72 l0 17.68 l3.8 0 c6.8 0 11.56 -1.04 11.56 -8.96 c0 -6.8 -3.96 -8.72 -10.16 -8.72 l-5.2 0 z M143.32 31.240000000000002 l-3.2 0 c-5.16 0 -6.24 1.36 -6.24 3.04 c0 1.24 1.16 2.08 3.32 2.08 c5 0 6.12 -3.04 6.12 -5.12 z M135.04 25.84 l-7.92 0 c0.4 -5.24 6.28 -6.68 11.56 -6.68 c7.84 0 12.32 1.88 12.32 8.68 l0 7.68 c0 1.48 0.04 3 0.16 4.48 l-7.44 0 c-0.08 -0.68 -0.16 -2.16 -0.16 -3.24 l-0.08 0 c-1.84 3.04 -5.28 4 -8.68 4 c-5.72 0 -9.08 -2.32 -9.08 -6.52 c0 -4.76 4.48 -6.92 12 -6.92 l5.6 0 c0 -3.2 -1.48 -4 -4.52 -4 c-2.84 0 -3.72 1.12 -3.76 2.52 z M154.71999999999997 24.8 l0 -4.88 l4.92 0 l0 -4.08 l7.68 -2.8 l0 6.88 l6.48 0 l0 4.88 l-6.48 0 l0 6.28 c0 2.8 0.36 4.28 3.44 4.28 c0.72 0 1.84 -0.08 3.04 -0.24 l0 4.88 c-0.72 0.12 -2.76 0.48 -5.16 0.48 c-5.88 0 -9 -2.28 -9 -7.16 l0 -8.52 l-4.92 0 z M184.64 27.68 l9.92 0 c-0.08 -3.28 -2.24 -4.36 -4.96 -4.36 c-3.56 0 -4.6 2.28 -4.96 4.36 z M202.71999999999997 31.84 l-18.2 0 c0.16 3.12 2 4.76 5.24 4.76 c3.36 0 3.96 -1.36 4.36 -2.72 l8.16 0 c-1.6 6.36 -7.08 6.88 -12.64 6.88 c-6.96 0 -13.04 -2.56 -13.04 -10.48 c0 -7.76 6.04 -11.12 12.92 -11.12 c9.8 0 13.16 4.84 13.2 12.68 z M205.03999999999996 40 l13.32 -15.04 l-12.4 -13.84 l11.08 0 l7.28 9.2 l7.12 -9.2 l10 0 l-12.4 13.84 l13.4 15.04 l-11.36 0 l-7.88 -10.08 l-7.84 10.08 l-10.32 0 z"></path>
    </g>
</svg>